# xmcd CD database file
#
# Track frame offsets:
#	150
#	24455
#	41353
#	61659
#	77530
#	93692
#	116943
#	135680
#	153011
#	173785
#	192503
#	212743
#	234789
#	252214
#	274915
#	294790
#	314834
#	333705
#
# Disc length: 4714 seconds
#
# Revision: 1
# Processed by: cddbd v1.5.2PL0 Copyright (c) Steve Scherf et al.
# Submitted via: CDex 1.51
#
DISCID=fc126812
DTITLE=Various Artist - ZM-HH-D-4
DYEAR=2014
DGENRE=Blues
TTITLE0=Kanye West - Stronger
TTITLE1=Kanye West Ft Jamie Fox - Gold Digger
TTITLE2=Keri Hilson Ft Kanye West and Ne-Yo - Knock You Down
TTITLE3=Lorde - Royals
TTITLE4=Lorde - Team
TTITLE5=Macklemore and Ryan Lewis - Downtown
TTITLE6=Macklemore Ft Ryan Lewis and Wanz - Thrift Shop
TTITLE7=Madcon - Beggin'
TTITLE8=MC Hammer - U Can't Touch This
TTITLE9=Nelly - Hot In Herre
TTITLE10=Nicki Minaj - Anaconda
TTITLE11=Nicki Minaj FT Drake - Moment 4 Life
TTITLE12=Nicki Minaj Ft Rihanna - Fly
TTITLE13=Notorious Big Ft Diddy Nelly Jagged edge And Avery Storm - Nasty Girl
TTITLE14=Notorious Big Ft Mase And Puff Daddy - Mo' Money Mo' Problems
TTITLE15=NWA - Express Yourself
TTITLE16=Outkast - Hey Ya
TTITLE17=Outkast - Roses
EXTD=
EXTT0=
EXTT1=
EXTT2=
EXTT3=
EXTT4=
EXTT5=
EXTT6=
EXTT7=
EXTT8=
EXTT9=
EXTT10=
EXTT11=
EXTT12=
EXTT13=
EXTT14=
EXTT15=
EXTT16=
EXTT17=
PLAYORDER=
